<svg width="11" height="11" viewBox="-1 0 13 13" fill="none" xmlns="http://www.w3.org/2000/svg">
<path d="M5.92969 2.96484V5.32202L7.49394 6.88628C7.66176 7.05409 7.66176 7.32615 7.49394 7.49394C7.32613 7.66176 7.05407 7.66174 6.88628 7.49394L5.19617 5.80383C5.11558 5.72327 5.07031 5.61395 5.07031 5.5V2.96484C5.07031 2.72753 5.26268 2.53516 5.5 2.53516C5.73732 2.53516 5.92969 2.72753 5.92969 2.96484ZM7.19011 0H3.80989C2.90991 0 2.02202 0.316293 1.3116 0.934098V0.429688C1.3116 0.192371 1.11923 0 0.881912 0C0.644596 0 0.452225 0.192371 0.452225 0.429688V2.1198C0.452225 2.35712 0.64625 2.54949 0.881912 2.54949H2.57202C2.80934 2.54949 3.00171 2.35712 3.00171 2.1198C3.00171 1.88248 2.80934 1.69011 2.57202 1.69011H1.75921C2.30306 1.16579 3.0372 0.859375 3.80989 0.859375H7.19009C8.81704 0.859375 10.1406 2.18296 10.1406 3.80989V7.19009C10.1406 8.81704 8.81704 10.1406 7.19011 10.1406H3.80989C2.18296 10.1406 0.859375 8.81704 0.859375 7.19011V5.5C0.859375 5.26268 0.667004 5.07031 0.429688 5.07031C0.192371 5.07031 0 5.26268 0 5.5V7.19011C0 9.2909 1.7091 11 3.80989 11H7.19009C9.2909 11 11 9.2909 11 7.19011V3.80989C11 1.7091 9.2909 0 7.19011 0V0Z" fill="black"/>
</svg>
