<svg width="13" height="9" viewBox="0 0 13 9" fill="none" xmlns="http://www.w3.org/2000/svg">
<path d="M11.2432 4.00485C11.6239 3.73734 11.8759 3.29235 11.8759 2.79077C11.8759 1.97023 11.2123 1.30659 10.3918 1.30659C9.57123 1.30659 8.9076 1.97023 8.9076 2.79077C8.9076 3.29235 9.1571 3.73734 9.54036 4.00485C9.21369 4.11803 8.91531 4.29294 8.66324 4.5193C8.31599 4.22349 7.907 3.99714 7.45944 3.86338C8.00218 3.53414 8.36743 2.93481 8.36743 2.25317C8.36743 1.21399 7.52632 0.372879 6.48714 0.372879C5.44796 0.372879 4.60685 1.21657 4.60685 2.25317C4.60685 2.93481 4.96953 3.53414 5.51484 3.86338C5.07242 3.99714 4.66858 4.22092 4.3239 4.51158C4.07182 4.29037 3.77859 4.11803 3.45706 4.00743C3.83775 3.73991 4.08983 3.29492 4.08983 2.79334C4.08983 1.9728 3.4262 1.30917 2.60566 1.30917C1.78512 1.30917 1.12149 1.9728 1.12149 2.79334C1.12149 3.29492 1.37099 3.73991 1.75425 4.00743C0.733083 4.35982 0 5.32955 0 6.46904V6.63881C0 6.64395 0.00514444 6.6491 0.0102889 6.6491H3.15611C3.13811 6.79057 3.12782 6.93718 3.12782 7.0838V7.25871C3.12782 8.01494 3.74001 8.62713 4.49624 8.62713H8.48318C9.23941 8.62713 9.8516 8.01494 9.8516 7.25871V7.0838C9.8516 6.93718 9.84131 6.79057 9.82331 6.6491H12.9897C12.9949 6.6491 13 6.64395 13 6.63881V6.46904C12.9949 5.32697 12.2643 4.35725 11.2432 4.00485ZM9.31915 2.78819C9.31915 2.19658 9.80016 1.71558 10.3918 1.71558C10.9834 1.71558 11.4644 2.19658 11.4644 2.78819C11.4644 3.37209 10.9937 3.84795 10.4123 3.86081C10.4046 3.86081 10.3995 3.86081 10.3918 3.86081C10.3841 3.86081 10.3789 3.86081 10.3712 3.86081C9.7873 3.85052 9.31915 3.37466 9.31915 2.78819ZM5.01326 2.25317C5.01326 1.44292 5.67175 0.784434 6.48199 0.784434C7.29224 0.784434 7.95073 1.44292 7.95073 2.25317C7.95073 3.03513 7.33597 3.67561 6.56688 3.71934C6.53858 3.71934 6.51029 3.71934 6.48199 3.71934C6.4537 3.71934 6.42541 3.71934 6.39711 3.71934C5.62802 3.67561 5.01326 3.03513 5.01326 2.25317ZM1.52533 2.78819C1.52533 2.19658 2.00633 1.71558 2.59794 1.71558C3.18955 1.71558 3.67056 2.19658 3.67056 2.78819C3.67056 3.37209 3.19984 3.84795 2.61852 3.86081C2.6108 3.86081 2.60566 3.86081 2.59794 3.86081C2.59023 3.86081 2.58508 3.86081 2.57736 3.86081C1.99604 3.85052 1.52533 3.37466 1.52533 2.78819ZM3.22814 6.23497H0.4167C0.53245 5.1392 1.45845 4.28008 2.58251 4.27236C2.58765 4.27236 2.5928 4.27236 2.59794 4.27236C2.60309 4.27236 2.60823 4.27236 2.61338 4.27236C3.1484 4.27494 3.63712 4.473 4.01524 4.79452C3.64484 5.19579 3.36961 5.68966 3.22814 6.23497ZM9.4349 7.25871C9.4349 7.78602 9.00534 8.21558 8.47804 8.21558H4.4911C3.96379 8.21558 3.53423 7.78602 3.53423 7.25871V7.0838C3.53423 5.48645 4.81005 4.17976 6.39711 4.13346C6.42541 4.13604 6.45627 4.13604 6.48457 4.13604C6.51286 4.13604 6.54373 4.13604 6.57202 4.13346C8.15908 4.17976 9.4349 5.48645 9.4349 7.0838V7.25871ZM9.741 6.23497C9.59953 5.69223 9.32944 5.20608 8.96161 4.80481C9.3423 4.47557 9.83617 4.27751 10.3763 4.27236C10.3815 4.27236 10.3866 4.27236 10.3918 4.27236C10.3969 4.27236 10.4021 4.27236 10.4072 4.27236C11.5313 4.28008 12.4573 5.1392 12.573 6.23497H9.741Z" fill="black"/>
</svg>
