<svg width="11" height="11" viewBox="0 0 13 13" fill="none" xmlns="http://www.w3.org/2000/svg">
<g clip-path="url(#clip0)">
<path d="M10.4929 10.5703H10.0216V3.72831C10.0216 3.40985 9.76254 3.15077 9.44409 3.15077H8.39084C8.07238 3.15077 7.8133 3.40987 7.8133 3.72831V10.5703H6.61679V6.82827C6.61679 6.50981 6.35771 6.25073 6.03925 6.25073H4.986C4.66754 6.25073 4.40846 6.50983 4.40846 6.82827V10.5703H3.21195V8.63234C3.21195 8.31387 2.95285 8.05479 2.63441 8.05479H1.58113C1.26267 8.05479 1.00359 8.31389 1.00359 8.63234V10.5703H0.506958C0.3883 10.5703 0.292114 10.6665 0.292114 10.7852C0.292114 10.9038 0.3883 11 0.506958 11H10.4929C10.6115 11 10.7077 10.9038 10.7077 10.7852C10.7077 10.6665 10.6115 10.5703 10.4929 10.5703ZM2.78222 10.5703H1.43326V8.63234C1.43326 8.5508 1.49958 8.48448 1.58111 8.48448H2.63436C2.7159 8.48448 2.78222 8.5508 2.78222 8.63234V10.5703ZM6.18708 10.5703H4.83812V6.82827C4.83812 6.74674 4.90444 6.68042 4.98598 6.68042H6.03923C6.12074 6.68042 6.18708 6.74674 6.18708 6.82827V10.5703ZM9.59195 10.5703H8.24299V3.72831C8.24299 3.64678 8.30931 3.58046 8.39084 3.58046H9.44409C9.52563 3.58046 9.59195 3.64678 9.59195 3.72831V10.5703Z" fill="black"/>
<path d="M10.0212 0.22593C10.0242 0.167299 10.0036 0.10768 9.95883 0.0629063C9.91406 0.0181328 9.85444 -0.00251367 9.79581 0.000515625C9.79235 0.000365234 9.78893 0 9.78541 0H8.4856C8.36695 0 8.27076 0.0961856 8.27076 0.214844C8.27076 0.333502 8.36695 0.429688 8.4856 0.429688H9.2882L7.16432 2.55359L6.36338 1.75265C6.32309 1.71237 6.26844 1.68972 6.21146 1.68972C6.15449 1.68972 6.09983 1.71237 6.05955 1.75265L2.19732 5.6149C2.11343 5.69879 2.11343 5.83483 2.19732 5.91875C2.23928 5.96067 2.29426 5.98164 2.34924 5.98164C2.40422 5.98164 2.45922 5.96067 2.50115 5.91871L6.21146 2.20838L7.0124 3.00932C7.0963 3.09321 7.23233 3.09321 7.31625 3.00932L9.59205 0.733541V1.45993C9.59205 1.57859 9.68824 1.67477 9.80689 1.67477C9.92555 1.67477 10.0217 1.57859 10.0217 1.45993V0.236328C10.0217 0.232826 10.0214 0.22941 10.0212 0.22593Z" fill="black"/>
<path d="M1.625 6.73126C1.74365 6.73126 1.83984 6.63507 1.83984 6.51642C1.83984 6.39776 1.74365 6.30157 1.625 6.30157C1.50634 6.30157 1.41016 6.39776 1.41016 6.51642C1.41016 6.63507 1.50634 6.73126 1.625 6.73126Z" fill="black"/>
</g>
<defs>
<clipPath id="clip0">
<rect width="11" height="11" fill="white"/>
</clipPath>
</defs>
</svg>
