<svg width="11" height="11" viewBox="0 0 11 11" fill="none" xmlns="http://www.w3.org/2000/svg">
<g clip-path="url(#clip0)">
<path d="M9.52609 4.48098C9.37062 4.39412 9.17424 4.44826 9.08675 4.60246C8.99894 4.7573 9.05339 4.95398 9.20822 5.04179C9.93427 5.45313 10.3554 5.95917 10.3554 6.46681C10.3554 7.34896 9.14278 8.18262 7.36968 8.54171C7.19501 8.57726 7.08234 8.7472 7.1176 8.92157C7.15346 9.09764 7.32572 9.20901 7.49747 9.17365C9.612 8.74533 11 7.68287 11 6.46681C11 5.71685 10.4627 5.01158 9.52609 4.48098Z" fill="black"/>
<path d="M3.88867 9.24076V10.334C3.88867 10.4529 3.95413 10.5622 4.05894 10.6182C4.16228 10.6736 4.28978 10.6687 4.38971 10.6021L6.3233 9.31307C6.413 9.25328 6.46682 9.15256 6.46682 9.04495C6.46682 8.93733 6.413 8.83662 6.3233 8.77682L4.38971 7.48776C4.29058 7.4223 4.16311 7.41538 4.05894 7.47171C3.95413 7.5277 3.88867 7.63691 3.88867 7.75587V8.58127C2.00445 8.25847 0.644531 7.40112 0.644531 6.4668C0.644531 5.95917 1.06571 5.45311 1.79173 5.04179C1.94657 4.95398 2.00101 4.75729 1.91321 4.60245C1.82572 4.44824 1.62965 4.39412 1.47387 4.48098C0.537303 5.01158 0 5.71685 0 6.4668C0 7.77967 1.56479 8.87447 3.88867 9.24076Z" fill="black"/>
<path d="M8.07811 1.59475L5.64413 0.377748C5.55348 0.332438 5.44649 0.332438 5.35585 0.377748L2.92175 1.59482L5.49999 2.88381L8.07811 1.59475Z" fill="black"/>
<path d="M8.40039 5.17775V2.15431L5.82227 3.44338C5.82227 3.50955 5.82227 6.73221 5.82227 6.66603L8.22226 5.46604C8.33147 5.41126 8.40039 5.29986 8.40039 5.17775Z" fill="black"/>
<path d="M2.59961 5.17774C2.59961 5.29986 2.66853 5.41126 2.77774 5.46602L5.17773 6.66603C5.17773 6.4398 5.17773 3.37716 5.17773 3.44337L2.59961 2.15442V5.17774Z" fill="black"/>
</g>
<defs>
<clipPath id="clip0">
<rect width="11" height="11" fill="white"/>
</clipPath>
</defs>
</svg>
